<?xml version="1.0" encoding="UTF-8"?>
<svg xmlns="http://www.w3.org/2000/svg" viewBox="0 0 441.252 713.578">
  <g fill="#424242">
    <polygon points="232.04 71.548 95.234 0 .361 49.533 137.429 121.081 232.04 71.548"/>
    <polygon points="137.429 496.103 137.429 137.283 .361 65.735 .361 424.73 137.429 496.103"/>
    <polygon points="247.18 438.341 152.568 488.257 152.568 128.948 247.18 79.414 247.18 438.341"/>
    <polygon points="426 547.752 331.288 597.317 152.568 504.634 247.104 454.562 426 547.752"/>
    <polygon points="331.256 612.915 331.256 712.162 441.252 654.984 441.252 555.738 331.256 612.915"/>
    <polygon points="316.772 713.578 316.772 605.331 0 439.938 0 547.413 316.772 713.578"/>
  </g>
</svg>
